<?xml version='1.0' encoding='iso-8859-1'?>
<!DOCTYPE svg PUBLIC '-//W3C//DTD SVG 1.1//EN' 'http://www.w3.org/Graphics/SVG/1.1/DTD/svg11.dtd'>
<svg version="1.1" xmlns="http://www.w3.org/2000/svg" viewBox="0 0 428 428" xmlns:xlink="http://www.w3.org/1999/xlink" enable-background="new 0 0 428 428">
  <path d="m413.226,180.383l-194.151-178.405c-2.869-2.637-7.28-2.637-10.149-8.65974e-15l-194.152,178.405c-2.276,2.092-3.036,5.365-1.914,8.246 1.123,2.88 3.897,4.777 6.988,4.777h45.006v227.094c0,4.142 3.358,7.5 7.5,7.5h283.291c4.142,0 7.5-3.358 7.5-7.5v-227.095h45.006c3.091,0 5.866-1.896 6.988-4.777 1.123-2.88 0.363-6.154-1.913-8.245zm-200.726-70.883c0-2.757 2.243-5 5-5s5,2.243 5,5-2.243,5-5,5-5-2.243-5-5zm143.145,68.905c-4.142,0-7.5,3.358-7.5,7.5v227.095h-58.745v-72.393l20.402-20.402c2.2,0.834 4.573,1.312 7.062,1.312 11.028,0 20-8.972 20-20s-8.972-20-20-20-20,8.972-20,20c0,3.039 0.701,5.911 1.92,8.494l-22.187,22.187c-1.407,1.406-2.197,3.314-2.197,5.303v75.499h-16.9v-158.393l13.857-13.857c2.491,1.116 5.242,1.751 8.143,1.751 11.028,0 20-8.972 20-20s-8.972-20-20-20-20,8.972-20,20c0,2.631 0.524,5.139 1.451,7.442l-16.255,16.255c-1.407,1.406-2.197,3.314-2.197,5.303v161.499h-17.499v-284.972c7.32-2.974 12.5-10.152 12.5-18.528 0-11.028-8.972-20-20-20s-20,8.972-20,20c0,8.375 5.18,15.553 12.5,18.528v284.972h-17.5v-201.713c0-1.989-0.79-3.897-2.197-5.303l-15.162-15.162c1.361-2.7 2.146-5.738 2.146-8.962 0-11.028-8.972-20-20-20s-20,8.972-20,20 8.972,20 20,20c2.298,0 4.497-0.409 6.554-1.125l13.659,13.66v198.605h-17.5v-115.5c0-1.989-0.79-3.897-2.197-5.303l-22.187-22.187c1.218-2.582 1.92-5.454 1.92-8.493 0-11.028-8.972-20-20-20s-20,8.972-20,20 8.972,20 20,20c2.489,0 4.862-0.478 7.062-1.312l20.402,20.402v112.393h-65.145v-227.095c0-4.142-3.358-7.5-7.5-7.5h-33.26l174.905-160.719 174.905,160.72h-33.26zm-43.781,123.11c0-2.757 2.243-5 5-5s5,2.243 5,5-2.243,5-5,5-5-2.243-5-5zm-37.364-79.016c0-2.757 2.243-5 5-5s5,2.243 5,5-2.243,5-5,5-5-2.243-5-5zm-117.213-35.64c-2.757,0-5-2.243-5-5s2.243-5 5-5 5,2.243 5,5-2.243,5-5,5zm-39.751,79.656c-2.757,0-5-2.243-5-5s2.243-5 5-5 5,2.243 5,5-2.243,5-5,5z"/>
</svg>
